<svg id="katman_1" data-name="katman 1" xmlns="http://www.w3.org/2000/svg" viewBox="0 0 270 81.14"><defs><style>.cls-1{fill:#fef018;}.cls-2{fill:#1b1d1e;}.cls-3{fill:#f2f2f2;}</style></defs><rect class="cls-1" width="69.2" height="81.14"/><path class="cls-2" d="M90.66,16.74h25.09v9.38H100.21V35.3h15.54v9.24H100.21V67.29H90.66Z" transform="translate(-65 0.07)"/><path class="cls-3" d="M146.62,14.5a5.76,5.76,0,0,1,4.24,1.79,6,6,0,0,1,1.76,4.33,5.86,5.86,0,0,1-1.75,4.28,5.65,5.65,0,0,1-4.18,1.77,5.74,5.74,0,0,1-4.26-1.8,6.05,6.05,0,0,1-1.77-4.39,6,6,0,0,1,6-6Zm-4.69,15.4h9.39V67.29h-9.39Z" transform="translate(-65 0.07)"/><path class="cls-3" d="M159.84,29.9h9.38v3.83A22.54,22.54,0,0,1,175,30a14,14,0,0,1,5.3-1,12.82,12.82,0,0,1,9.44,3.88q3.25,3.3,3.26,9.76V67.29h-9.28V50.92a41.34,41.34,0,0,0-.6-8.89A6.06,6.06,0,0,0,181,38.68a5.82,5.82,0,0,0-3.68-1.15,7,7,0,0,0-4.89,1.9,10.25,10.25,0,0,0-2.83,5.27,43.06,43.06,0,0,0-.41,7.59v15h-9.38Z" transform="translate(-65 0.07)"/><path class="cls-3" d="M198.07,29.9h9.56L217.07,52,226.5,29.9H236L220.1,67.29H214Z" transform="translate(-65 0.07)"/><path class="cls-3" d="M279,51.31H248.81a10.05,10.05,0,0,0,3.49,6.34A10.93,10.93,0,0,0,259.53,60a12.5,12.5,0,0,0,9-3.67L276.48,60a18.76,18.76,0,0,1-7.08,6.2,22.17,22.17,0,0,1-9.8,2q-8.79,0-14.33-5.55a18.87,18.87,0,0,1-5.53-13.9,19.56,19.56,0,0,1,5.51-14.21,18.53,18.53,0,0,1,13.84-5.65q8.82,0,14.36,5.65T279,49.52Zm-9.38-7.39a9.38,9.38,0,0,0-3.67-5.08,10.59,10.59,0,0,0-6.35-2,11.18,11.18,0,0,0-6.88,2.2,12.25,12.25,0,0,0-3.45,4.84Z" transform="translate(-65 0.07)"/><path class="cls-3" d="M285,29.9h28.63l-16.8,29.45h15.84v7.94H282.39l16.87-29.45H285Z" transform="translate(-65 0.07)"/><path class="cls-3" d="M320.05,16.12h9.38V29.9H335V38h-5.57V67.29h-9.38V38h-4.81V29.9h4.81Z" transform="translate(-65 0.07)"/></svg>