<svg id="katman_1" data-name="katman 1" xmlns="http://www.w3.org/2000/svg" viewBox="0 0 121 36.36"><defs><style>.cls-1{fill:#fef018;}.cls-2{fill:#1b1d1e;}.cls-3{fill:#f2f2f2;}</style></defs><rect class="cls-1" width="31.01" height="36.36"/><path class="cls-2" d="M35,7.65H46.24v4.21h-7V16h7v4.14h-7v10.2H35Z" transform="translate(-23.5 -0.12)"/><path class="cls-3" d="M60.08,6.65a2.59,2.59,0,0,1,1.9.8,2.7,2.7,0,0,1,.79,1.94A2.61,2.61,0,0,1,62,11.31a2.52,2.52,0,0,1-1.87.79,2.57,2.57,0,0,1-1.91-.81,2.69,2.69,0,0,1-.79-2,2.57,2.57,0,0,1,.78-1.89A2.55,2.55,0,0,1,60.08,6.65ZM58,13.55h4.2V30.31H58Z" transform="translate(-23.5 -0.12)"/><path class="cls-3" d="M66,13.55h4.21v1.72a9.68,9.68,0,0,1,2.59-1.68,6.3,6.3,0,0,1,2.37-.47,5.76,5.76,0,0,1,4.23,1.74,5.93,5.93,0,0,1,1.46,4.37V30.31H76.71V23a18.58,18.58,0,0,0-.27-4,2.82,2.82,0,0,0-.94-1.5A2.66,2.66,0,0,0,73.85,17a3.09,3.09,0,0,0-2.19.85,4.61,4.61,0,0,0-1.27,2.36,19.59,19.59,0,0,0-.18,3.4v6.73H66Z" transform="translate(-23.5 -0.12)"/><path class="cls-3" d="M83.14,13.55h4.28l4.23,9.89,4.23-9.89h4.26L93,30.31H90.28Z" transform="translate(-23.5 -0.12)"/><path class="cls-3" d="M119.38,23.14H105.87A4.53,4.53,0,0,0,107.44,26,4.91,4.91,0,0,0,110.68,27a5.6,5.6,0,0,0,4-1.65l3.54,1.67a8.36,8.36,0,0,1-3.17,2.78,9.94,9.94,0,0,1-4.39.9,8.66,8.66,0,0,1-6.42-2.49A8.47,8.47,0,0,1,101.81,22a8.74,8.74,0,0,1,2.47-6.37,8.29,8.29,0,0,1,6.2-2.53,8.62,8.62,0,0,1,6.44,2.53,9.17,9.17,0,0,1,2.48,6.69Zm-4.2-3.31a4.27,4.27,0,0,0-1.65-2.28,4.76,4.76,0,0,0-2.84-.87,5.08,5.08,0,0,0-3.09,1,5.55,5.55,0,0,0-1.54,2.17Z" transform="translate(-23.5 -0.12)"/><path class="cls-3" d="M122.08,13.55h12.83l-7.53,13.2h7.09v3.56H120.92l7.56-13.2h-6.4Z" transform="translate(-23.5 -0.12)"/><path class="cls-3" d="M137.8,7.37H142v6.18h2.49v3.62H142V30.31H137.8V17.17h-2.16V13.55h2.16Z" transform="translate(-23.5 -0.12)"/></svg>