<svg id="katman_1" data-name="katman 1" xmlns="http://www.w3.org/2000/svg" viewBox="0 0 168 50.48"><defs><style>.cls-1{fill:#f2f2f2;}</style></defs><path class="cls-1" d="M50.79,15.63a3.57,3.57,0,0,1,2.63,1.11,3.7,3.7,0,0,1,1.1,2.69,3.62,3.62,0,0,1-1.09,2.66,3.5,3.5,0,0,1-2.6,1.11,3.56,3.56,0,0,1-2.65-1.13,3.71,3.71,0,0,1-1.1-2.72,3.72,3.72,0,0,1,3.71-3.72Zm-2.92,9.58h5.84V48.47H47.87Z" transform="translate(0 -6.56)"/><path class="cls-1" d="M59,25.21h5.84v2.38a13.86,13.86,0,0,1,3.6-2.33,8.77,8.77,0,0,1,3.29-.65A8,8,0,0,1,77.62,27q2,2.06,2,6.08V48.47H73.87V38.28a25.79,25.79,0,0,0-.37-5.53,3.85,3.85,0,0,0-1.3-2.08A3.65,3.65,0,0,0,69.9,30a4.31,4.31,0,0,0-3,1.19,6.38,6.38,0,0,0-1.76,3.28,26.67,26.67,0,0,0-.25,4.72v9.33H59Z" transform="translate(0 -6.56)"/><path class="cls-1" d="M82.8,25.21h6l5.87,13.72,5.87-13.72h5.92L96.5,48.47H92.72Z" transform="translate(0 -6.56)"/><path class="cls-1" d="M133.12,38.53H114.37a6.2,6.2,0,0,0,2.17,3.94,6.81,6.81,0,0,0,4.5,1.47,7.83,7.83,0,0,0,5.63-2.29L131.58,44a11.6,11.6,0,0,1-4.4,3.86,13.83,13.83,0,0,1-6.1,1.25,12,12,0,0,1-8.91-3.46A11.72,11.72,0,0,1,108.72,37a12.17,12.17,0,0,1,3.44-8.85,11.53,11.53,0,0,1,8.6-3.51,12,12,0,0,1,8.94,3.51,12.72,12.72,0,0,1,3.44,9.3Zm-5.83-4.6A5.84,5.84,0,0,0,125,30.77a6.55,6.55,0,0,0-4-1.22,7,7,0,0,0-4.28,1.36,7.59,7.59,0,0,0-2.14,3Z" transform="translate(0 -6.56)"/><path class="cls-1" d="M136.87,25.21h17.81L144.23,43.53h9.85v4.94H135.26l10.5-18.33h-8.89Z" transform="translate(0 -6.56)"/><path class="cls-1" d="M158.7,16.63h5.83v8.58H168v5h-3.47V48.47H158.7V30.23h-3v-5h3Z" transform="translate(0 -6.56)"/><path class="cls-1" d="M0,6.56V57H43.06V6.56ZM31.58,22.85H21.91v5.71h9.67v5.75H21.91V48.47H16V17H31.58Z" transform="translate(0 -6.56)"/></svg>